PathFileType	4	(X/Y/Z)	C:/Users/opensim2020/Desktop/walking_exp_matlab/subject02_walking08_straight_04.trc																																																																																																																									
DataRate	CameraRate	NumFrames	NumMarkers	Units	OrigDataRate	OrigDataStartFrame	OrigNumFrames																																																																																																																					
100	100	4	41	mm	100	3107	241																																																																																																																					
Frame#	Time	LFHD			RFHD			LBHD			RBHD			C7			T10			CLAV			STRN			RBAK			LSHO			LUPA			LELB			LFRM			LWRA			LWRB			LFIN			RSHO			RUPA			RELB			RFRM			RWRA			RWRB			RFIN			LASI			RASI			LPSI			RPSI			LTHI			LKNE			LTIB			LANK			LHEE			LTOE			RTHI			RKNE			RTIB			RANK			RHEE			RTOE			*39			*40		
		X1	Y1	Z1	X2	Y2	Z2	X3	Y3	Z3	X4	Y4	Z4	X5	Y5	Z5	X6	Y6	Z6	X7	Y7	Z7	X8	Y8	Z8	X9	Y9	Z9	X10	Y10	Z10	X11	Y11	Z11	X12	Y12	Z12	X13	Y13	Z13	X14	Y14	Z14	X15	Y15	Z15	X16	Y16	Z16	X17	Y17	Z17	X18	Y18	Z18	X19	Y19	Z19	X20	Y20	Z20	X21	Y21	Z21	X22	Y22	Z22	X23	Y23	Z23	X24	Y24	Z24	X25	Y25	Z25	X26	Y26	Z26	X27	Y27	Z27	X28	Y28	Z28	X29	Y29	Z29	X30	Y30	Z30	X31	Y31	Z31	X32	Y32	Z32	X33	Y33	Z33	X34	Y34	Z34	X35	Y35	Z35	X36	Y36	Z36	X37	Y37	Z37	X38	Y38	Z38	X39	Y39	Z39	X40	Y40	Z40	X41	Y41	Z41
																																																																																																																												
121	1.2	119.50739	1722.45862	-1518.12097	71.27326	1707.27502	-1382.31433	-11.91201	1670.2218	-1570.64978	-71.51567	1655.41223	-1439.43689	-109.42973	1530.45898	-1496.72192	-166.44377	1250.19897	-1495.01135	25.28989	1455.80957	-1501.57556	74.94509	1285.00952	-1490.66504	-174.72847	1352.30078	-1436.07385	-38.43305	1502.91736	-1671.71838	-35.54398	1308.61328	-1768.46167	-14.49887	1170.15527	-1794.33972	36.11953	1048.02356	-1812.56592	131.8918	949.62665	-1788.77209	85.88879	935.61243	-1818.26355	126.72445	884.8775	-1828.03784	-43.57684	1491.60156	-1307.31689	-79.04463	1297.76758	-1229.18408	-64.28927	1151.47229	-1215.01587	-33.80301	1035.90356	-1193.57922	21.87355	911.83441	-1208.02393	-27.81965	906.04797	-1181.53674	12.27354	845.3587	-1174.80127	72.2057	992.39093	-1621.87732	63.93707	982.76605	-1366.69116	-139.55191	1031.66187	-1546.15222	-148.34904	1031.08923	-1431.60193	7.30981	676.5625	-1661.19238	-34.54311	476.42557	-1627.50623	-102.01125	292.20862	-1623.79517	-113.06564	70.76511	-1580.24072	-150.6564	43.94504	-1529.7146	42.42763	32.53023	-1591.22327	44.68298	684.78839	-1273.59729	96.28881	487.42789	-1286.38879	4.24432	325.6087	-1293.69739	-60.83212	145.80907	-1332.48059	-90.55379	95.60018	-1397.86548	55.81631	54.175	-1277.46533	6.15324	1805.8197	-1463.22852	-2845.1333	1034.24121	3360.12036
122	1.21	129.00505	1721.57544	-1517.00269	79.74756	1706.38501	-1381.38818	-1.90031	1669.57678	-1570.08716	-62.75016	1655.04578	-1439.66455	-100.67303	1530.19495	-1496.92554	-158.38603	1250.02954	-1494.98621	33.89068	1455.26648	-1501.49219	83.11794	1284.31946	-1491.11914	-166.37639	1351.95386	-1436.57727	-29.18645	1502.82886	-1671.75854	-23.77445	1309.03931	-1768.97449	-0.69765	1171.0813	-1795.62195	52.64239	1049.84509	-1813.28552	149.94412	952.83148	-1787.87085	104.40861	938.50623	-1818.47388	146.60176	888.55481	-1827.67615	-35.80923	1490.64185	-1307.38745	-72.45433	1297.17847	-1229.51294	-59.15668	1150.73193	-1215.36938	-29.79589	1034.96375	-1193.45776	25.54595	910.61035	-1207.01904	-24.35669	905.06366	-1181.03674	15.1955	844.27228	-1173.93213	79.27373	990.98364	-1622.9126	72.22488	982.42072	-1367.15967	-132.03989	1031.18225	-1545.59229	-140.4395	1030.74756	-1431.14368	12.31045	675.8634	-1661.02234	-31.01316	476.04016	-1627.25891	-99.93687	292.37259	-1623.65442	-113.03274	71.24454	-1580.31641	-150.54697	44.26307	-1529.50391	42.53742	32.41473	-1591.25574	55.04158	685.2616	-1274.09021	109.10468	487.61652	-1287.46045	23.87413	321.61716	-1293.34827	-33.01973	138.68344	-1330.94434	-61.16031	86.89681	-1395.9657	88.24617	52.67818	-1277.38623	15.63534	1805.198	-1462.74658	-2845.83447	1034.2168	3357.32056
123	1.22	138.70903	1720.31592	-1515.33813	88.28259	1705.40735	-1380.26904	7.67169	1669.13391	-1569.98718	-54.00074	1654.56689	-1439.69849	-91.98431	1529.82617	-1496.99011	-150.3111	1249.72742	-1494.89258	42.44962	1454.55737	-1501.26563	91.34554	1283.4989	-1491.45508	-158.47621	1351.61121	-1437.22351	-20.12355	1502.74756	-1671.85864	-12.12064	1309.3573	-1769.41174	13.12921	1171.78125	-1796.52759	68.93927	1051.32251	-1813.37292	167.46886	956.59204	-1787.43225	122.7094	941.22424	-1818.4082	166.26671	891.88214	-1826.93884	-27.82825	1489.6051	-1307.27417	-67.13219	1296.52356	-1230.34082	-53.75867	1149.9021	-1215.41968	-25.67736	1034.0321	-1193.42212	29.25254	909.38287	-1206.04663	-20.96908	904.2121	-1180.72205	18.16262	843.0799	-1172.94849	85.77268	989.28149	-1623.63879	80.98763	982.23712	-1367.26184	-124.50745	1030.53796	-1545.02515	-132.61546	1030.18762	-1430.72937	17.34869	675.23029	-1660.79163	-27.33094	475.62186	-1626.99695	-97.87395	292.5882	-1623.61841	-112.53027	71.14568	-1579.98267	-150.43605	44.59564	-1529.40454	42.60529	32.36292	-1591.3208	65.37693	685.55359	-1274.55261	121.21335	487.57001	-1288.64941	43.3949	317.57602	-1293.00183	-5.56066	131.81061	-1329.56848	-31.62884	78.70417	-1394.25854	120.7268	52.08679	-1276.76208	25.17409	1804.46704	-1462.05457	-2846.00171	1034.17773	3357.49731
124	1.23	148.0858	1719.25757	-1514.16919	96.93392	1704.24646	-1378.86206	17.34852	1668.49182	-1569.51453	-45.29655	1654.08154	-1439.76782	-83.25623	1529.37512	-1497.04736	-142.16805	1249.33069	-1494.64392	51.05706	1453.8363	-1501.01929	99.59551	1282.61487	-1491.59924	-150.27029	1351.1134	-1437.40833	-10.91675	1502.47705	-1671.61011	-0.3331	1309.45093	-1769.44885	26.80084	1172.47253	-1797.22803	84.76777	1053.17969	-1813.77856	184.68835	960.01917	-1786.60095	140.72289	943.91608	-1818.19678	185.05588	895.53705	-1826.48059	-19.79184	1488.474	-1307.13159	-59.6072	1295.63672	-1230.06128	-48.29661	1149.26563	-1215.24768	-21.0114	1033.37207	-1193.00671	33.40204	908.16541	-1204.79785	-17.1743	903.19287	-1180.19067	21.47663	841.97668	-1172.06384	94.3929	988.4231	-1624.40332	89.08672	981.6524	-1367.30835	-116.96516	1029.81543	-1544.42554	-124.69717	1029.45068	-1430.35645	22.39346	674.53046	-1660.58386	-23.57253	475.18781	-1626.74207	-95.50253	292.6626	-1623.37537	-112.26436	71.40389	-1579.83984	-150.29222	45.23534	-1529.11902	42.70239	32.31336	-1591.35046	75.37601	685.48029	-1274.86316	132.77409	487.17526	-1290.00562	62.76785	313.54239	-1292.72668	22.49339	125.35971	-1327.98303	-1.79735	71.03364	-1392.28857	152.77591	51.45298	-1276.11108	34.51579	1803.61511	-1461.38867	-2845.34351	1033.90723	3360.40479
